<?xml version="1.0" encoding="UTF-8" standalone="no"?>
<svg
   xmlns:dc="http://purl.org/dc/elements/1.1/"
   xmlns:cc="http://creativecommons.org/ns#"
   xmlns:rdf="http://www.w3.org/1999/02/22-rdf-syntax-ns#"
   xmlns:svg="http://www.w3.org/2000/svg"
   xmlns="http://www.w3.org/2000/svg"
   xmlns:sodipodi="http://sodipodi.sourceforge.net/DTD/sodipodi-0.dtd"
   xmlns:inkscape="http://www.inkscape.org/namespaces/inkscape"
   version="1.0"
   width="1066.667"
   height="757.333"
   viewBox="0 0 24 24"
   id="svg1009"
   sodipodi:docname="laurel_wreath.svg"
   inkscape:version="1.0.1 (3bc2e813f5, 2020-09-07)">
  <metadata
     id="metadata1015">
    <rdf:RDF>
      <cc:Work
         rdf:about="">
        <dc:format>image/svg+xml</dc:format>
        <dc:type
           rdf:resource="http://purl.org/dc/dcmitype/StillImage" />
      </cc:Work>
    </rdf:RDF>
  </metadata>
  <defs
     id="defs1013" />
  <sodipodi:namedview
     pagecolor="#ffffff"
     bordercolor="#666666"
     borderopacity="1"
     objecttolerance="10"
     gridtolerance="10"
     guidetolerance="10"
     inkscape:pageopacity="0"
     inkscape:pageshadow="2"
     inkscape:window-width="1920"
     inkscape:window-height="1017"
     id="namedview1011"
     showgrid="false"
     inkscape:zoom="0.79362808"
     inkscape:cx="579.6611"
     inkscape:cy="413.48891"
     inkscape:window-x="-8"
     inkscape:window-y="-8"
     inkscape:window-maximized="1"
     inkscape:current-layer="svg1009"
     inkscape:document-rotation="0" />
  <path
     d="M 3.2834367,0.51493926 C 2.2477239,1.0078722 1.4889406,1.6614233 1.2729363,2.237434 1.1233943,2.6306729 1.0735473,3.0405271 1.1233943,3.4005333 l 0.044311,0.2603132 0.2769285,-0.03323 C 1.9652592,3.5556144 2.3086501,3.3839189 2.707427,2.99068 3.1671283,2.542057 3.5160583,1.8552742 3.7320627,0.99125688 3.8096041,0.67002039 3.8871428,0.37647548 3.8982199,0.33770571 3.9369907,0.22693535 3.8151385,0.26016423 3.2834387,0.51494019 Z"
     id="path941"
     style="fill:#008000;stroke-width:0.0553856" />
  <path
     d="m 20.164995,0.50386208 c 0.160619,0.68678282 0.304622,1.11879152 0.515088,1.57849272 0.420931,0.9027862 1.102175,1.4566433 1.921883,1.5507992 l 0.254774,0.03323 0.03877,-0.2658513 c 0.05538,-0.360006 0.0055,-0.7698602 -0.144006,-1.1630991 C 22.5355,1.661423 21.771178,1.0023328 20.735466,0.5149389 20.452999,0.38201233 20.198225,0.27124196 20.164992,0.27124196 c -0.03877,0 -0.03877,0.0775416 0,0.23261975 z"
     id="path943"
     style="fill:#008000;stroke-width:0.0553856" />
  <path
     d="m -0.30001732,1.2017221 c -0.40431609,0.6867828 -0.63139762,1.2960241 -0.76432238,2.0160385 -0.077541,0.4320087 -0.01108,0.841863 0.19938805,1.2627944 0.15508011,0.299083 0.50954823,0.7200145 0.60924233,0.7200145 0.0387708,0 0.15508011,-0.094152 0.2658513,-0.2160043 C 0.51415205,4.4251699 0.71354103,3.7660797 0.60276886,2.9906791 0.53630741,2.4811309 0.30368681,1.7112704 0.05998899,1.1851068 L -0.09509016,0.85279118 Z"
     id="path945"
     style="fill:#008000;stroke-width:0.0553856" />
  <path
     d="m 23.909068,1.3291087 c -0.57601,1.345873 -0.670166,2.3095834 -0.293544,3.0683677 0.155081,0.3267755 0.553857,0.8030931 0.664629,0.8030931 0.09415,0 0.481856,-0.4652403 0.620318,-0.747707 0.265852,-0.5317037 0.28247,-0.9526342 0.06092,-1.794497 -0.09969,-0.3876999 -0.564932,-1.4012583 -0.758782,-1.66157052 -0.09969,-0.1273866 -0.09969,-0.1273866 -0.293544,0.33231372 z"
     id="path947"
     style="fill:#008000;stroke-width:0.0553856" />
  <path
     d="m 20.707775,3.5888451 c 0,0.04431 0.149542,0.5261636 0.221544,0.69786 0.160618,0.4098542 0.531702,1.1132533 0.720013,1.3624884 0.282467,0.3821607 0.836324,0.8030921 1.185254,0.9083253 0.149542,0.04431 0.420931,0.083081 0.603704,0.083081 h 0.326777 L 23.742907,6.1532064 C 23.720756,5.7710438 23.687525,5.6104265 23.565673,5.3778068 23.30536,4.8627185 22.884428,4.4916351 22.10349,4.0762417 21.665944,3.8436221 20.707771,3.5113084 20.707771,3.5888479 Z"
     id="path949"
     style="fill:#008000;stroke-width:0.0553856" />
  <path
     d="M 2.6797326,3.7494643 C 1.9375646,4.0097766 1.156626,4.4750168 0.80215783,4.8682539 0.45322783,5.2559546 0.30922494,5.6104237 0.28153237,6.1532036 l -0.0221507,0.4873938 h 0.32677556 c 0.96371136,0 1.73357196,-0.6369358 2.32619876,-1.9218836 0.144003,-0.3101612 0.3987771,-1.0135593 0.4043161,-1.1132524 0,-0.04431 -0.2547741,0.011071 -0.6369357,0.1440029 z"
     id="path951"
     style="fill:#008000;stroke-width:0.0553856" />
  <path
     d="m -2.1831311,4.7353292 c -0.1772345,0.7753995 -0.2160043,1.1409458 -0.1883108,1.7280337 0.03323,0.7089362 0.083081,0.897248 0.3766226,1.3347957 C -1.7732769,8.1249332 -1.1751119,8.606789 -1.0366471,8.56248 -0.92587588,8.523709 -0.66556355,7.9200062 -0.60463839,7.565538 -0.53817704,7.1556837 -0.63786911,6.6018276 -0.87048978,6.0922794 -1.0477243,5.6990404 -1.5351181,4.9679497 -1.8508174,4.624557 L -2.1000525,4.3476293 Z"
     id="path953"
     style="fill:#008000;stroke-width:0.0553856" />
  <path
     d="m 25.864183,4.624557 c -0.31016,0.354469 -0.797553,1.0910989 -0.969249,1.4677224 -0.18831,0.4098533 -0.326775,1.0689425 -0.282468,1.3791027 0.03877,0.3101602 0.221543,0.8141704 0.35447,0.9914049 l 0.105232,0.1329247 0.243697,-0.1440019 c 0.337854,-0.1993891 0.747707,-0.648013 0.919402,-1.0246366 0.204927,-0.448624 0.238159,-1.3901809 0.07754,-2.2265037 C 26.246348,4.8793311 26.174346,4.5580946 26.146653,4.4860941 26.102343,4.3587066 26.096802,4.3642447 25.864185,4.624557 Z"
     id="path955"
     style="fill:#008000;stroke-width:0.0553856" />
  <path
     d="m 1.2397046,6.9119869 c -0.89170987,0.548318 -1.58956888,1.2683315 -1.80557322,1.8554212 -0.14400292,0.3821614 -0.17169643,0.9637101 -0.0609218,1.3458719 0.0886217,0.293544 0.19384988,0.304621 0.69785904,0.07754 C 0.72462014,9.8917396 1.2286303,9.227111 1.4557118,8.3354014 1.5609449,7.9366234 1.7271013,6.8399873 1.6994087,6.723677 1.6883287,6.6572156 1.5830984,6.7015264 1.2397075,6.9119887 Z"
     id="path957"
     style="fill:#008000;stroke-width:0.0553856" />
  <path
     d="m 22.31396,6.7513676 c 0,0.066461 0.03877,0.398778 0.08862,0.7366308 0.155081,1.0689435 0.470778,1.8443429 0.947096,2.2985052 0.27139,0.2603134 0.448624,0.3655464 0.886172,0.5150874 0.34893,0.11631 0.360006,0.110772 0.465239,-0.4597014 0.07754,-0.437546 0.01662,-0.852939 -0.199389,-1.301563 -0.243695,-0.4929329 -1.11325,-1.290486 -1.921882,-1.7612644 -0.260311,-0.149542 -0.265851,-0.149542 -0.265851,-0.027691 z"
     id="path959"
     style="fill:#008000;stroke-width:0.0553856" />
  <path
     d="m -3.1634578,8.56248 c 0,0.7366295 0.1606182,1.489875 0.4597012,2.176658 0.199389,0.454163 0.9360179,1.002481 1.4732596,1.085559 l 0.2215425,0.03323 0.0609209,-0.238159 c 0.11631083,-0.42093 0.0498512,-1.08002 -0.1495406,-1.489872 C -1.3246557,9.6535777 -1.6902011,9.2049537 -2.188672,8.7950997 -2.5597565,8.4960168 -3.0748439,8.1360095 -3.1357681,8.1360095 c -0.016611,0 -0.027691,0.1938499 -0.027691,0.4264696 z"
     id="path961"
     style="fill:#008000;stroke-width:0.0553856" />
  <path
     d="m 26.733738,8.4018618 c -0.836323,0.5926269 -1.35141,1.1464837 -1.633878,1.7668042 -0.171695,0.376622 -0.232619,1.063405 -0.127386,1.451105 l 0.06092,0.238158 0.227081,-0.03323 c 0.526164,-0.08308 1.273871,-0.636936 1.467721,-1.085559 0.171697,-0.409853 0.343391,-0.9858655 0.398777,-1.3680271 0.072,-0.454161 0.08308,-1.2351006 0.02215,-1.2351006 -0.02769,0.00549 -0.210467,0.1218494 -0.415394,0.2658513 z"
     id="path963"
     style="fill:#008000;stroke-width:0.0553856" />
  <path
     d="M 1.0680092,9.8086576 C 0.63046237,10.273898 0.28153237,10.77237 0.01014198,11.342843 c -0.22708061,0.476317 -0.24923506,0.559394 -0.24369693,0.941557 0,0.23262 0.0332303,0.520624 0.0775416,0.648013 0.11077128,0.30462 0.29908203,0.670166 0.37108347,0.714475 0.0886215,0.05538 0.50401011,-0.210466 0.75324611,-0.481857 0.42646957,-0.465239 0.63139667,-1.091098 0.63139667,-1.944037 0,-0.470779 -0.1440029,-1.5895689 -0.2160043,-1.6615712 -0.022151,-0.022151 -0.1661574,0.088622 -0.3156994,0.2492348 z"
     id="path965"
     style="fill:#008000;stroke-width:0.0553856" />
  <path
     d="m 22.624121,9.5760381 c -0.07754,0.2160045 -0.199389,1.1852539 -0.199389,1.6228009 0,1.118792 0.376622,1.921884 1.102176,2.353893 l 0.243697,0.144003 0.132924,-0.166158 c 0.193852,-0.243697 0.35447,-0.819708 0.35447,-1.268332 0,-0.326776 -0.02769,-0.454163 -0.19385,-0.819709 C 23.814913,10.894218 23.39952,10.279437 22.978589,9.8363506 22.745969,9.5871154 22.646275,9.5151139 22.624121,9.5760381 Z"
     id="path967"
     style="fill:#008000;stroke-width:0.0553856" />
  <path
     d="m -3.5511576,11.769312 c 0,0.0997 0.5261636,1.096637 0.7310907,1.39018 0.7033991,1.008021 1.4344898,1.417875 2.33727698,1.318181 l 0.37108343,-0.03877 -0.0387708,-0.254775 c -0.1716955,-1.185249 -1.05232821,-1.916341 -2.81913171,-2.34281 -0.4707784,-0.110773 -0.5815496,-0.127388 -0.5815487,-0.072 z"
     id="path969"
     style="fill:#008000;stroke-width:0.0553856" />
  <path
     d="m 27.270979,11.774852 c -0.526164,0.11077 -1.229562,0.34339 -1.54526,0.49847 -0.504009,0.249236 -0.675706,0.365545 -0.96371,0.675706 -0.343392,0.360006 -0.509549,0.720014 -0.58709,1.262793 l -0.03323,0.227082 0.365547,0.03877 c 0.432008,0.04985 0.96371,-0.06092 1.329255,-0.276929 0.321238,-0.188312 0.692321,-0.581551 1.046791,-1.113253 0.254773,-0.376622 0.692321,-1.212947 0.692321,-1.318179 0,-0.03877 -0.132926,-0.03323 -0.304623,0.0055 z"
     id="path971"
     style="fill:#008000;stroke-width:0.0553856" />
  <path
     d="m 2.0095661,12.799486 c -0.6757056,0.753246 -1.29602507,2.010501 -1.29602507,2.614205 0,0.481855 0.21600339,1.074482 0.51508637,1.401258 l 0.1107712,0.121848 0.2381588,-0.166157 c 0.6867829,-0.470778 1.0523282,-1.500952 0.9083253,-2.542203 -0.055391,-0.432009 -0.2658514,-1.356951 -0.3267756,-1.484336 -0.027691,-0.04985 -0.066461,-0.03323 -0.149541,0.05538 z"
     id="path973"
     style="fill:#008000;stroke-width:0.0553856" />
  <path
     d="m 21.821028,12.882564 c -0.271389,1.019098 -0.360007,1.678187 -0.288006,2.187736 0.110772,0.81417 0.371084,1.307102 0.880633,1.672647 0.243697,0.177234 0.265851,0.188311 0.360007,0.09969 0.199389,-0.182773 0.426469,-0.65909 0.492933,-1.057867 0.08308,-0.498472 0,-0.886172 -0.371085,-1.656032 -0.210465,-0.443085 -0.814169,-1.329257 -0.969249,-1.423412 -0.02769,-0.01662 -0.07754,0.06092 -0.105233,0.177233 z"
     id="path975"
     style="fill:#008000;stroke-width:0.0553856" />
  <path
     d="m -2.969608,14.704754 c 0.6369359,1.102175 1.4012582,1.866498 2.06588658,2.071424 0.40985422,0.127387 0.85847822,0.138465 1.25725523,0.03877 C 0.6913866,16.726319 0.6913866,16.665403 0.40338464,16.072777 -0.0397012,15.158913 -1.0255661,14.654903 -2.7425226,14.47767 l -0.3821616,-0.04431 z"
     id="path977"
     style="fill:#008000;stroke-width:0.0553856" />
  <path
     d="m 26.440194,14.510904 c -0.564934,0.072 -1.356949,0.299083 -1.750188,0.492932 -0.61478,0.310161 -1.04125,0.819709 -1.240638,1.467721 -0.05538,0.19385 -0.05538,0.260313 -0.01107,0.276929 1.356949,0.443085 2.497896,-0.210465 3.550223,-2.038193 l 0.149541,-0.260314 -0.15508,0.0055 c -0.08308,0.0055 -0.326775,0.03323 -0.54278,0.05538 z"
     id="path979"
     style="fill:#008000;stroke-width:0.0553856" />
  <path
     d="m 20.336692,15.048146 c -0.780939,1.639415 -0.753247,2.935441 0.08861,3.744072 l 0.160618,0.15508 0.188311,-0.188312 c 0.409855,-0.398777 0.708936,-1.046789 0.708936,-1.534183 -0.0055,-0.603704 -0.310159,-1.567416 -0.758783,-2.370507 L 20.563765,14.56629 Z"
     id="path981"
     style="fill:#008000;stroke-width:0.0553856" />
  <path
     d="m 3.2889749,14.859833 c -0.3932379,0.675706 -0.7477061,1.788958 -0.7477061,2.376046 0,0.487395 0.3876998,1.296026 0.7643224,1.58957 l 0.1440028,0.11631 0.1716955,-0.182773 C 4.1142224,18.238361 4.2859179,17.734351 4.241609,16.947875 4.2194584,16.554636 4.1640676,16.277707 4.0366819,15.890007 3.8705255,15.402613 3.5160564,14.616137 3.4551322,14.616137 c -0.01108,0 -0.088622,0.110771 -0.1661573,0.243696 z"
     id="path983"
     style="fill:#008000;stroke-width:0.0553856" />
  <path
     d="m 4.9837779,16.643254 c -0.099695,0.481854 -0.1384647,1.545259 -0.072001,1.993884 0.1052321,0.731091 0.5040092,1.318179 1.1409449,1.683724 0.1550801,0.09415 0.2990831,0.166158 0.3156984,0.166158 0.016611,0 0.1052331,-0.144003 0.1938499,-0.321237 0.149541,-0.288005 0.1606182,-0.365546 0.1606182,-0.897248 0,-0.542779 -0.01108,-0.609243 -0.1827726,-0.96925 C 6.285341,17.767583 5.9419502,17.27465 5.4600944,16.754025 l -0.404315,-0.443086 z"
     id="path985"
     style="fill:#008000;stroke-width:0.0553856" />
  <path
     d="m 18.558811,16.754025 c -0.476318,0.515086 -0.825247,1.013558 -1.074483,1.54526 -0.171695,0.360007 -0.182772,0.426471 -0.182772,0.96925 0,0.531702 0.01108,0.609243 0.160618,0.897248 0.08862,0.177234 0.177235,0.321237 0.19385,0.321237 0.105233,0 0.636936,-0.365546 0.85294,-0.58155 0.515086,-0.509548 0.686782,-1.152022 0.625857,-2.326199 -0.01661,-0.393238 -0.06646,-0.841862 -0.105231,-0.991403 l -0.07201,-0.27139 z"
     id="path987"
     style="fill:#008000;stroke-width:0.0553856" />
  <path
     d="m -0.95910753,17.202649 c -0.27138947,0.01108 -0.48739377,0.04431 -0.48739377,0.072 0,0.09415 0.60924224,0.753245 0.9526341,1.030174 1.14648306,0.919402 1.7612644,1.074483 2.7471302,0.681244 0.1550801,-0.06646 0.2880058,-0.15508 0.2880058,-0.19385 0,-0.171695 -0.2824676,-0.620319 -0.5427799,-0.864016 -0.6313967,-0.592627 -1.45664428,-0.792016 -2.95759643,-0.725553 z"
     id="path989"
     style="fill:#008000;stroke-width:0.0553856" />
  <path
     d="m 23.576754,17.219264 c -0.659089,0.11631 -1.163099,0.348931 -1.5508,0.708938 -0.260311,0.243696 -0.542779,0.69232 -0.542779,0.864016 0,0.08863 0.454163,0.282466 0.869555,0.371084 0.73663,0.149541 1.672649,-0.304621 2.614206,-1.273871 0.365544,-0.382161 0.537241,-0.603705 0.492932,-0.642475 -0.04985,-0.04985 -1.628339,-0.072 -1.883114,-0.02769 z"
     id="path991"
     style="fill:#008000;stroke-width:0.0553856" />
  <path
     d="m 7.3376692,19.002683 c 0.2880058,0.675706 0.5538572,1.135407 0.8750936,1.51203 0.3877007,0.454163 0.4541631,0.509548 0.847402,0.692321 0.3876998,0.182773 0.8197075,0.254774 1.2074082,0.199388 l 0.260312,-0.04431 -0.03877,-0.243697 C 10.394963,20.459325 10.073721,19.905468 9.5807893,19.528845 9.0933945,19.152223 8.1019906,18.736831 7.3210529,18.576211 l -0.1827727,-0.03877 z"
     id="path993"
     style="fill:#008000;stroke-width:0.0553856" />
  <path
     d="m 16.769853,18.570675 c -0.01108,0.01108 -0.09415,0.03323 -0.188312,0.04985 -0.581549,0.09415 -1.611723,0.520625 -2.110194,0.880632 -0.481855,0.343391 -0.841863,0.963711 -0.936018,1.606185 l -0.03877,0.260313 0.204927,0.03877 c 0.498471,0.09415 1.362489,-0.138463 1.716956,-0.459701 0.276929,-0.249235 0.697861,-0.797554 0.902787,-1.179715 0.371084,-0.681244 0.631398,-1.373565 0.448625,-1.196331 z"
     id="path995"
     style="fill:#008000;stroke-width:0.0553856" />
  <path
     d="m 2.3751114,19.384844 c -0.4264695,0.04985 -1.57849265,0.398778 -1.57295357,0.470779 0.01108,0.149541 1.24063907,0.864016 1.84988217,1.074483 0.7532452,0.260312 1.3292567,0.204926 2.0049623,-0.204927 C 5.039163,20.498097 5.0557794,20.470404 4.9727007,20.309785 4.74008,19.872238 4.0588363,19.462384 3.4163624,19.379306 c -0.4541631,-0.06092 -0.5372409,-0.06092 -1.041251,0.0055 z"
     id="path997"
     style="fill:#008000;stroke-width:0.0553856" />
  <path
     d="m 20.707775,19.36269 c -0.321236,0.03323 -0.670166,0.138465 -0.941556,0.282468 -0.276928,0.155079 -0.7754,0.642474 -0.7754,0.764322 0,0.11631 0.625859,0.50401 0.985866,0.609243 0.725552,0.210466 1.633877,-0.04985 2.780362,-0.803093 0.376622,-0.243696 0.520625,-0.371084 0.4597,-0.409854 -0.06092,-0.03323 -0.930479,-0.293544 -1.207408,-0.360007 -0.260312,-0.06646 -1.030173,-0.11631 -1.301564,-0.08308 z"
     id="path999"
     style="fill:#008000;stroke-width:0.0553856" />
  <path
     d="m 5.5320959,20.99103 c -0.4707784,0.121849 -1.1354067,0.432008 -1.6560323,0.780937 l -0.3600072,0.232621 0.2215425,0.0997 c 0.1163103,0.05538 0.4652403,0.182772 0.7698614,0.276927 0.5150873,0.171696 0.6037041,0.182773 1.3292567,0.182773 0.7532452,0 0.7864768,-0.0055 1.0689435,-0.160618 0.2713905,-0.149542 0.6867828,-0.526165 0.8640174,-0.780939 0.072001,-0.09969 0.055381,-0.127387 -0.1661574,-0.299082 -0.5593952,-0.42647 -1.2683324,-0.54278 -2.0714246,-0.332314 z"
     id="path1001"
     style="fill:#008000;stroke-width:0.0553856" />
  <path
     d="m 17.01355,21.007645 c -0.19385,0.072 -0.454163,0.216004 -0.592627,0.315699 -0.221543,0.171695 -0.238159,0.199389 -0.166158,0.299082 0.193851,0.276929 0.62032,0.648014 0.902788,0.792017 0.293544,0.144002 0.34893,0.14954 1.085559,0.14954 0.747707,-0.0055 0.797553,-0.01108 1.373566,-0.210466 0.326774,-0.110771 0.65909,-0.238158 0.736629,-0.276929 l 0.144003,-0.072 -0.382162,-0.249236 c -1.212946,-0.792016 -2.287429,-1.04679 -3.101598,-0.747707 z"
     id="path1003"
     style="fill:#008000;stroke-width:0.0553856" />
  <path
     d="m 8.7666199,22.087666 c -0.4873938,0.149542 -1.1409449,0.50401 -1.6948021,0.924941 -0.2713894,0.199389 -0.4873937,0.382162 -0.4873937,0.404315 0,0.06646 0.9083252,0.282468 1.4344888,0.343392 1.2461781,0.127387 2.0492711,-0.171695 2.5588191,-0.963711 0.210466,-0.326775 0.216005,-0.332313 0.105234,-0.409854 -0.531703,-0.371083 -1.2904875,-0.487394 -1.9163461,-0.299083 z"
     id="path1005"
     style="fill:#008000;stroke-width:0.0553856" />
  <path
     d="m 13.978414,22.082128 c -0.304621,0.105233 -0.747707,0.337852 -0.747707,0.404315 0,0.105233 0.526165,0.73663 0.753246,0.897249 0.398776,0.288005 0.780938,0.3877 1.489875,0.3877 0.337853,0 0.76986,-0.02769 0.96925,-0.06646 0.49847,-0.09415 0.996942,-0.238159 0.996942,-0.282466 0,-0.05538 -0.731091,-0.603705 -1.107714,-0.841864 -0.875094,-0.53724 -1.705879,-0.714474 -2.353892,-0.49847 z"
     id="path1007"
     style="fill:#008000;stroke-width:0.0553856" />
</svg>
