<?xml version="1.0" encoding="UTF-8" standalone="no"?>
<svg
   xmlns:dc="http://purl.org/dc/elements/1.1/"
   xmlns:cc="http://creativecommons.org/ns#"
   xmlns:rdf="http://www.w3.org/1999/02/22-rdf-syntax-ns#"
   xmlns:svg="http://www.w3.org/2000/svg"
   xmlns="http://www.w3.org/2000/svg"
   xmlns:sodipodi="http://sodipodi.sourceforge.net/DTD/sodipodi-0.dtd"
   xmlns:inkscape="http://www.inkscape.org/namespaces/inkscape"
   height="24"
   viewBox="0 0 24 24"
   width="24"
   version="1.1"
   id="svg26"
   sodipodi:docname="pin.svg"
   inkscape:version="1.0.1 (3bc2e813f5, 2020-09-07)">
  <metadata
     id="metadata32">
    <rdf:RDF>
      <cc:Work
         rdf:about="">
        <dc:format>image/svg+xml</dc:format>
        <dc:type
           rdf:resource="http://purl.org/dc/dcmitype/StillImage" />
      </cc:Work>
    </rdf:RDF>
  </metadata>
  <defs
     id="defs30" />
  <sodipodi:namedview
     pagecolor="#ffffff"
     bordercolor="#666666"
     borderopacity="1"
     objecttolerance="10"
     gridtolerance="10"
     guidetolerance="10"
     inkscape:pageopacity="0"
     inkscape:pageshadow="2"
     inkscape:window-width="1920"
     inkscape:window-height="1017"
     id="namedview28"
     showgrid="true"
     inkscape:zoom="22.627417"
     inkscape:cx="1.2988591"
     inkscape:cy="7.9317522"
     inkscape:window-x="-8"
     inkscape:window-y="-8"
     inkscape:window-maximized="1"
     inkscape:current-layer="svg26"
     inkscape:document-rotation="0">
    <inkscape:grid
       type="xygrid"
       id="grid8" />
  </sodipodi:namedview>
  <path
     d="M 18,7.9999964 C 18,4.6899984 15.31,2 12,2 8.69,2 6,4.6899984 6,7.9999964 c 0,4.4999996 6,10.9999906 6,10.9999906 0,0 6,-6.499991 6,-10.9999906 z m -8,0 c 0,-1.0999996 0.9,-1.9999993 2,-1.9999993 1.1,0 2,0.8999997 2,1.9999993 0,1.0999991 -0.89,1.999998 -2,1.999998 -1.1,0 -2,-0.8999989 -2,-1.999998 z"
     id="path24"
     style="fill:#ff2a2a;fill-opacity:1;stroke-width:0.999998"
     sodipodi:nodetypes="ssscssssss" />
  <path
     style="fill:#00b0e5;fill-opacity:1;fill-rule:evenodd;stroke-width:0.999998"
     id="path34"
     sodipodi:type="arc"
     sodipodi:cx="12"
     sodipodi:cy="20.801237"
     sodipodi:rx="7.0164709"
     sodipodi:ry="2.7529409"
     sodipodi:start="5.0231399"
     sodipodi:end="4.4025666"
     sodipodi:arc-type="slice"
     d="m 14.145452,18.18015 a 7.0164709,2.7529409 0 0 1 4.786243,3.047739 7.0164709,2.7529409 0 0 1 -6.934953,2.326289 A 7.0164709,2.7529409 0 0 1 5.0672985,21.225363 7.0164709,2.7529409 0 0 1 9.8607518,18.17937 L 12,20.801237 Z" />
</svg>
